<svg xmlns="http://www.w3.org/2000/svg"  viewBox="0 0 50 50" width="50px" height="50px"><path d="M 37.933594 1.0019531 C 37.856203 1.0069687 37.780078 1.0214219 37.705078 1.0449219 C 37.430186 1.1289166 31.227556 3.1075915 27.146484 9.2050781 C 26.272429 8.7225803 25.404054 8.4770284 24.564453 8.4316406 L 23.996094 1.9121094 C 23.968094 1.5991094 23.797297 1.3173906 23.529297 1.1503906 C 23.263297 0.98439063 22.930672 0.95435938 22.638672 1.0683594 C 22.25814 1.2154057 13.369585 4.7728482 10.515625 14.722656 C 9.9039248 15.551488 9.5292969 16.559428 9.5292969 17.650391 L 9 46.982422 C 8.995 47.250422 9.0981563 47.509172 9.2851562 47.701172 C 9.4741563 47.893172 9.731 48 10 48 L 39 48 C 39.1375 48 39.269453 47.972094 39.388672 47.921875 C 39.507891 47.87175 39.614703 47.798734 39.705078 47.708984 C 39.795071 47.619489 39.868981 47.512897 39.919922 47.394531 C 39.919922 47.394531 39.919922 47.392578 39.919922 47.392578 C 39.970644 47.274186 39.998739 47.144583 40 47.007812 L 40 47.005859 L 40.019531 43.640625 C 40.019545 43.637885 40.017587 43.635549 40.017578 43.632812 C 40.024811 42.405094 40.029396 41.796497 40.042969 39.132812 C 40.313281 39.005758 40.49511 38.886237 40.607422 38.794922 C 43.186029 37.01088 44.373243 31.37494 44.857422 28.117188 C 45.100034 27.205536 45.249224 26.086834 45.189453 24.738281 C 45.122453 23.203281 43.863219 22 42.324219 22 L 40.128906 22 L 40.15625 16.246094 C 40.160135 15.553041 40.013719 14.880504 39.726562 14.238281 C 39.901743 13.853275 40 13.435213 40 13 C 40 12.199 39.688094 11.444906 39.121094 10.878906 C 39.080378 10.838191 39.040627 10.805349 39 10.765625 L 39 2 C 39 1.683 38.85075 1.3843125 38.59375 1.1953125 C 38.4025 1.0535625 38.165766 0.98690625 37.933594 1.0019531 z M 37.001953 3.4746094 L 37.001953 9.1875 C 36.711623 9.0155317 36.422018 8.8729081 36.134766 8.7539062 C 36.088393 8.7345944 36.042392 8.7210488 35.996094 8.703125 C 35.769283 8.6157667 35.543659 8.544695 35.318359 8.4902344 C 35.239471 8.4710805 35.16076 8.4545686 35.082031 8.4394531 C 34.880634 8.40096 34.679022 8.3775084 34.478516 8.3652344 C 34.402329 8.3605324 34.326091 8.3524942 34.25 8.3515625 C 33.981404 8.3483865 33.710972 8.3606292 33.443359 8.4042969 C 33.243255 8.436817 33.050314 8.4831464 32.867188 8.5390625 C 32.500452 8.6512144 32.16632 8.8068808 31.869141 8.9902344 C 31.720833 9.0818174 31.579835 9.1814809 31.449219 9.2851562 C 30.925344 9.7012813 30.545906 10.199203 30.316406 10.658203 C 30.239295 10.812961 30.179562 10.974286 30.130859 11.138672 C 30.103464 11.229412 30.088884 11.321719 30.070312 11.414062 C 30.060053 11.466521 30.040624 11.517348 30.033203 11.570312 L 28.976562 11.644531 C 28.971774 11.604833 28.957511 11.566794 28.951172 11.527344 C 28.936747 11.437401 28.917003 11.350003 28.894531 11.261719 C 28.869785 11.164314 28.841086 11.069194 28.806641 10.974609 C 28.775635 10.889355 28.739881 10.806981 28.701172 10.724609 C 28.676898 10.673156 28.662075 10.618502 28.634766 10.568359 C 31.262766 6.4993594 35.037953 4.3666094 37.001953 3.4746094 z M 22.130859 3.53125 L 22.578125 8.6640625 C 21.788486 8.8825794 21.045259 9.2299029 20.375 9.6542969 C 19.981835 9.9007872 19.615522 10.174087 19.271484 10.460938 C 19.266834 10.464814 19.262452 10.468776 19.257812 10.472656 C 18.953235 10.727472 18.677564 10.990435 18.417969 11.259766 C 18.104298 11.582887 17.823022 11.901701 17.599609 12.199219 C 17.58976 12.212344 17.583819 12.226998 17.574219 12.240234 C 17.524408 12.30853 17.475241 12.377473 17.431641 12.451172 L 14.181641 12.679688 C 14.117267 12.68418 14.057804 12.704021 13.994141 12.710938 C 13.770241 12.735386 13.546886 12.761814 13.330078 12.816406 C 15.702078 7.5354063 20.017859 4.67525 22.130859 3.53125 z M 34.179688 10.345703 C 34.285255 10.345822 34.392362 10.358099 34.5 10.371094 C 34.531911 10.37478 34.563628 10.374094 34.595703 10.378906 C 34.73181 10.400065 34.868165 10.431033 35.007812 10.472656 C 35.009196 10.47306 35.010335 10.474203 35.011719 10.474609 C 35.66235 10.6694 36.357554 11.110658 37.099609 11.755859 C 37.300933 11.931021 37.49808 12.084018 37.707031 12.292969 C 37.896031 12.481969 38 12.733 38 13 C 38 13.266073 37.894786 13.515316 37.707031 13.705078 C 37.707031 13.705078 37.707031 13.707031 37.707031 13.707031 C 37.327732 14.083075 36.673267 14.082425 36.294922 13.705078 C 35.765922 13.175078 35.280516 12.7905 34.853516 12.5625 C 34.822368 12.545899 34.788074 12.542335 34.755859 12.529297 C 34.701598 12.507218 34.647905 12.48483 34.591797 12.472656 C 34.554558 12.464716 34.518111 12.462613 34.480469 12.458984 C 34.447215 12.455626 34.41422 12.447266 34.380859 12.447266 C 34.364144 12.447266 34.348703 12.4562 34.332031 12.457031 C 34.247873 12.461489 34.166587 12.47855 34.085938 12.503906 C 34.054368 12.513702 34.022761 12.518308 33.992188 12.53125 C 33.884341 12.577115 33.781916 12.636673 33.693359 12.720703 C 33.693359 12.720703 33.691406 12.722656 33.691406 12.722656 C 33.386402 13.010059 32.928863 13.080165 32.554688 12.892578 C 32.540078 12.885295 32.531409 12.874931 32.517578 12.867188 C 32.431081 12.818796 32.357046 12.757608 32.291016 12.689453 C 32.262323 12.658941 32.233817 12.62912 32.210938 12.597656 C 32.185131 12.563349 32.169514 12.523411 32.148438 12.486328 C 32.103903 12.40252 32.061499 12.31528 32.044922 12.253906 C 32.027704 12.18943 32.021689 12.123636 32.017578 12.056641 C 32.004647 11.906548 32.012673 11.737639 32.105469 11.552734 C 32.161969 11.439234 32.240969 11.317672 32.339844 11.197266 C 32.63654 10.836399 33.119727 10.483809 33.765625 10.378906 C 33.902308 10.356338 34.040174 10.34611 34.179688 10.345703 z M 24.248047 10.4375 C 24.989047 10.4375 25.769641 10.643969 26.556641 11.167969 C 26.649001 11.229542 26.716784 11.311279 26.78125 11.394531 C 26.807064 11.427901 26.834319 11.460153 26.855469 11.496094 C 26.902281 11.575904 26.937777 11.661416 26.960938 11.75 C 26.972174 11.793214 26.977048 11.836514 26.982422 11.880859 C 26.992429 11.962563 26.994734 12.044549 26.984375 12.126953 C 26.978319 12.173869 26.964069 12.219427 26.951172 12.265625 C 26.923881 12.363847 26.893165 12.465314 26.833984 12.554688 C 26.757247 12.668106 26.660931 12.761105 26.552734 12.832031 C 26.552734 12.832031 26.550781 12.833984 26.550781 12.833984 C 26.224161 13.04689 25.787305 13.057866 25.445312 12.828125 C 24.577312 12.252125 23.629266 12.416281 22.791016 12.863281 C 22.791016 12.863281 22.789062 12.865234 22.789062 12.865234 C 22.370831 13.08858 21.979392 13.381971 21.640625 13.689453 C 21.640625 13.689453 21.638672 13.691406 21.638672 13.691406 C 21.469789 13.84482 21.313976 14.001168 21.173828 14.154297 C 21.173828 14.154297 21.171875 14.15625 21.171875 14.15625 C 21.031958 14.309257 20.907981 14.459069 20.802734 14.597656 C 20.802734 14.597656 20.800781 14.599609 20.800781 14.599609 C 20.752958 14.661461 20.69939 14.717405 20.640625 14.765625 C 20.640625 14.765625 20.638672 14.767578 20.638672 14.767578 C 20.460612 14.912884 20.236818 14.992188 20 14.992188 C 19.847 14.992188 19.619391 14.958969 19.400391 14.792969 C 19.382044 14.779057 19.370676 14.759158 19.353516 14.744141 C 19.283548 14.682946 19.222717 14.614013 19.173828 14.539062 C 19.143867 14.492645 19.121393 14.443065 19.099609 14.392578 C 19.076936 14.340495 19.058454 14.287238 19.044922 14.232422 C 19.031032 14.174794 19.019106 14.116189 19.015625 14.056641 C 19.01242 14.005116 19.018654 13.953935 19.023438 13.902344 C 19.029752 13.838215 19.033516 13.772151 19.052734 13.708984 C 19.067133 13.661319 19.095291 13.617964 19.117188 13.572266 C 19.143841 13.513519 19.166475 13.447032 19.201172 13.400391 C 19.214797 13.382238 19.232158 13.363893 19.246094 13.345703 C 19.353093 13.206969 20.48707 11.788839 22.140625 10.976562 C 22.214355 10.941032 22.286736 10.901622 22.361328 10.869141 C 22.616141 10.756565 22.882498 10.661897 23.15625 10.589844 C 23.359794 10.536329 23.564732 10.492938 23.769531 10.46875 C 23.769531 10.46875 23.771484 10.46875 23.771484 10.46875 C 23.928247 10.450341 24.087332 10.4375 24.248047 10.4375 z M 30.4375 13.550781 C 30.562965 13.758829 30.717328 13.944516 30.888672 14.115234 C 30.937446 14.164375 30.986924 14.212151 31.039062 14.257812 C 31.106396 14.316111 31.173326 14.373421 31.246094 14.425781 C 31.347108 14.499212 31.453952 14.564588 31.564453 14.625 C 31.597145 14.642821 31.6247 14.666889 31.658203 14.683594 C 32.525203 15.117594 33.542859 15.095109 34.380859 14.662109 C 34.519859 14.777109 34.684906 14.927094 34.878906 15.121094 C 34.935231 15.177518 35.000638 15.220167 35.060547 15.271484 C 35.120609 15.322336 35.178504 15.376344 35.242188 15.421875 C 35.339616 15.492922 35.442431 15.553017 35.546875 15.611328 C 35.574853 15.626567 35.602438 15.641921 35.630859 15.65625 C 36.050828 15.873323 36.513898 16 37 16 C 37.072966 16 37.142764 15.98365 37.214844 15.978516 C 37.269879 15.975174 37.324204 15.96923 37.378906 15.962891 C 37.478209 15.950357 37.577059 15.940139 37.673828 15.917969 C 37.827018 15.884268 37.977417 15.839937 38.123047 15.78125 C 38.146047 15.93125 38.15725 16.082375 38.15625 16.234375 L 38.140625 19.501953 C 37.187045 17.354241 35.559038 16 33.625 16 C 31.421922 16 30.31833 17.441661 29.724609 19.083984 C 29.454978 18.62439 29.151746 18.201406 28.814453 17.830078 C 28.341302 17.309185 27.80661 16.885729 27.228516 16.576172 L 27.15625 14.763672 C 27.499093 14.620599 27.819123 14.41415 28.09375 14.146484 C 28.094748 14.145514 28.094706 14.14355 28.095703 14.142578 C 28.172062 14.067954 28.235616 13.978406 28.304688 13.894531 C 28.362144 13.825014 28.426573 13.763294 28.478516 13.6875 L 30.4375 13.550781 z M 24.183594 14.460938 C 24.243289 14.458754 24.296063 14.469719 24.335938 14.496094 C 24.595907 14.66947 24.874802 14.782197 25.160156 14.865234 L 25.205078 16.013672 C 25.136481 16.010562 25.069156 16 25 16 C 21.691 16 19 19.589 19 24 C 19 26.76767 20.059247 29.209545 21.666016 30.646484 C 20.159064 31.746829 16.444895 33.871216 11.253906 32.986328 L 11.529297 17.664062 C 11.529297 16.972689 11.777523 16.339408 12.177734 15.828125 C 12.185059 15.819668 12.194089 15.813433 12.201172 15.804688 C 12.737172 15.135687 13.489313 14.735734 14.320312 14.677734 L 17.050781 14.486328 C 17.172168 15.217484 17.556149 15.90727 18.191406 16.388672 C 18.716406 16.785672 19.340047 16.994141 19.998047 16.994141 C 20.734839 16.994141 21.422443 16.725603 21.960938 16.257812 C 22.115413 16.128648 22.257788 15.985073 22.382812 15.822266 C 22.382812 15.822266 22.384766 15.820312 22.384766 15.820312 C 22.536678 15.627625 22.714694 15.436184 22.900391 15.259766 C 23.087203 15.082547 23.284703 14.917734 23.470703 14.787109 C 23.748734 14.592184 24.00505 14.467468 24.183594 14.460938 z M 25 18 C 27.168 18 29 20.748 29 24 C 29 27.252 27.168 30 25 30 C 22.832 30 21 27.252 21 24 C 21 23.5935 21.027703 23.194961 21.082031 22.808594 C 21.462328 20.104023 23.103 18 25 18 z M 33.625 18 C 35.12 18 36.391516 19.628 36.853516 22 L 35.964844 22 C 35.801977 20.858776 35.100298 20 34.375 20 C 33.285635 20 33.061922 20.867489 33.019531 22 L 31.107422 22 C 31.524422 18.712 32.423 18 33.625 18 z M 25.25 21 C 24.422 21 23.875 22.119 23.875 23.5 C 23.875 24.881 24.672 26 25.5 26 C 26.328 26 27 24.881 27 23.5 C 27 22.119 26.375 21 25.25 21 z M 31 24 L 36.101562 24 C 36.095409 24.017299 36.093717 24.035359 36.087891 24.052734 C 36.026448 24.235594 35.980116 24.422679 35.955078 24.611328 C 35.954208 24.617903 35.953951 24.624281 35.953125 24.630859 C 35.930063 24.813906 35.928223 24.997524 35.939453 25.181641 C 35.941391 25.213632 35.940386 25.245394 35.943359 25.277344 C 35.960885 25.464803 35.997545 25.650529 36.050781 25.833984 C 36.058417 25.860353 36.067797 25.885877 36.076172 25.912109 C 36.136322 26.10029 36.208458 26.286347 36.306641 26.464844 C 37.041885 27.802539 37.960137 28.989943 39.044922 30.011719 C 39.406312 30.352141 39.785844 30.674062 40.183594 30.976562 C 40.312937 31.074359 40.452244 31.155464 40.595703 31.226562 C 40.636741 31.246891 40.678704 31.263166 40.720703 31.28125 C 40.832228 31.329336 40.945522 31.370407 41.0625 31.402344 C 41.105361 31.414034 41.147977 31.42411 41.191406 31.433594 C 41.307994 31.459114 41.425366 31.475104 41.544922 31.484375 C 41.591992 31.488038 41.638219 31.494991 41.685547 31.496094 C 41.705279 31.496543 41.724373 31.5 41.744141 31.5 C 41.840612 31.5 41.938046 31.483601 42.035156 31.472656 C 42.08064 31.467598 42.126494 31.472332 42.171875 31.464844 C 41.439875 34.407844 40.466313 36.486969 39.445312 37.167969 C 39.390312 37.203969 39.399516 37.191281 39.353516 37.238281 C 39.343516 37.245281 38.26 38 34 38 C 29.778479 38 28.235884 37.301418 27.335938 34.900391 C 27.492043 34.917459 27.650253 34.939983 27.695312 34.953125 C 28.219313 35.119125 28.775219 34.836406 28.949219 34.316406 C 29.124219 33.791406 28.839406 33.226734 28.316406 33.052734 C 26.994406 32.609734 23.994469 32.773734 22.105469 36.552734 C 21.858469 37.046734 22.058734 37.647531 22.552734 37.894531 C 22.695734 37.965531 22.848047 38 22.998047 38 C 23.365047 38 23.718531 37.797266 23.894531 37.447266 C 24.377881 36.479304 24.909129 35.894428 25.419922 35.511719 C 26.79285 39.243579 29.628351 40 34 40 C 35.757682 40 37.063422 39.8776 38.039062 39.707031 C 38.03314 40.831413 38.030061 41.433256 38.025391 42.294922 C 36.573199 41.999845 34.746326 42 32 42 C 28.324224 42 26.162724 44.314066 25.068359 46 L 20 46 L 20 41 C 20 40.447 19.553 40 19 40 C 18.447 40 18 40.447 18 41 L 18 46 L 15 46 L 15 41 C 15 40.447 14.553 40 14 40 C 13.447 40 13 40.447 13 41 L 13 46 L 11.019531 46 L 11.216797 34.998047 C 12.08943 35.132338 12.937145 35.21875 13.732422 35.21875 C 19.258825 35.21875 22.690838 32.456647 23.5 31.738281 C 23.980351 31.904005 24.481293 32 25 32 C 25.206813 32 25.411803 31.986348 25.613281 31.958984 C 27.023629 31.76744 28.289656 30.921844 29.240234 29.654297 C 30.326609 28.205672 31 26.2055 31 24 z M 38.927734 24 L 42.324219 24 C 42.782219 24 43.172359 24.371172 43.193359 24.826172 C 43.267262 26.481884 42.971984 27.679444 42.615234 28.507812 C 42.504814 28.765992 42.380015 29.006814 42.242188 29.228516 C 42.126187 29.414516 41.949516 29.472234 41.853516 29.490234 C 41.755516 29.510234 41.570531 29.517766 41.394531 29.384766 C 40.027531 28.344766 38.906547 27.038953 38.060547 25.501953 C 37.804547 25.036953 37.984266 24.636328 38.072266 24.486328 C 38.158266 24.340328 38.414734 24 38.927734 24 z M 32 44 C 34.835 44 36.707625 44.000609 38.015625 44.349609 C 38.013317 44.757426 38.007606 45.711564 38.005859 46 L 27.585938 46 C 28.541938 44.968 29.978 44 32 44 z"/></svg>